<svg xmlns="http://www.w3.org/2000/svg" width="106.135" height="80" viewBox="0 0 106.135 80"><path d="M78.083,57.784l-4.4,1.554V50.692L68.8,52.416V74.627L73.681,72.9V64l4.4-1.554v8.9l4.882-1.724V47.414l-4.882,1.724Z" transform="translate(-21.246 -22.402)" fill="#57727f"/><path d="M84.376,51.571l4.284-1.513V67.6l4.882-1.724V48.334l4.283-1.513V42.156L84.376,46.9Z" transform="translate(-20.258 -22.791)" fill="#57727f"/><path d="M117.99,52.455V34.909l-4.882,1.724V58.845l11.484-4.055V50.124Z" transform="translate(-18.457 -23.585)" fill="#57727f"/><path d="M35.726,74.983a8.538,8.538,0,0,0,1.68-5.036c.005-.962-.254-3.912-2.845-4.6a6.343,6.343,0,0,0-3.436.284l-7.012,2.477v22.21l9.268-3.272a6.966,6.966,0,0,0,3.4-2.318,9.067,9.067,0,0,0,1.643-5.118c.013-2.022-.843-4.15-2.7-4.627M29,71.05s1.967-.739,2.43-.884c1.253-.426,1.711.79,1.713,1.638a2.714,2.714,0,0,1-1.769,2.613c-.317.118-2.375.839-2.375.839Zm3.282,11.721L29,83.929V79.211l2.827-1c1.147-.433,2.046.408,2.046,1.779a2.653,2.653,0,0,1-1.591,2.778" transform="translate(-24.113 -20.919)" fill="#57727f"/><path d="M99.267,63.833l11.751-4.15V55.018l-6.869,2.425V52.725l5.278-1.864V46.681l-5.277,1.864V44.563l6.869-2.425V37.471l-11.751,4.15Z" transform="translate(-19.058 -23.113)" fill="#57727f"/><path d="M40.244,84.675l11.751-4.15V75.86l-6.869,2.425V73.568L50.4,71.7V67.523l-5.277,1.864V65.405l6.869-2.425V58.314l-11.751,4.15Z" transform="translate(-23.086 -21.646)" fill="#57727f"/><path d="M66.911,66.893,62.559,68.43v2.322a2.9,2.9,0,0,1-2.05,2.868c-1.229.441-1.933.019-1.933-1.195v-10.5a2.919,2.919,0,0,1,2.089-2.8c1.264-.444,1.892-.011,1.895,1.29v2.364l4.352-1.535v-2.3c-.01-3.228-1.7-4.985-4.525-4.7a11.163,11.163,0,0,0-2,.466,9.561,9.561,0,0,0-6.69,9.11V73.6c.01,3.3,1.976,5.234,4.958,4.931a8.389,8.389,0,0,0,1.945-.455,9,9,0,0,0,6.315-8.6Z" transform="translate(-22.222 -21.965)" fill="#57727f"/><path d="M73.875,30.137a33.135,33.135,0,0,1,23,9.239l6.3-2.225A39.326,39.326,0,0,0,34.6,61.366l6.3-2.225a33.251,33.251,0,0,1,32.976-29" transform="translate(-23.658 -24.056)" fill="#ff2800"/><path d="M73.466,94.914A33.133,33.133,0,0,1,50.3,85.51l-6.284,2.219a39.327,39.327,0,0,0,68.739-24.273l-6.28,2.217A33.25,33.25,0,0,1,73.466,94.914" transform="translate(-21.457 -20.995)" fill="#ff2800"/></svg>