<?xml version="1.0" standalone="no"?>
<!DOCTYPE svg PUBLIC "-//W3C//DTD SVG 20010904//EN"
 "http://www.w3.org/TR/2001/REC-SVG-20010904/DTD/svg10.dtd">
<svg version="1.0" xmlns="http://www.w3.org/2000/svg"
 width="1280.000000pt" height="1280.000000pt" viewBox="0 0 1280.000000 1280.000000"
 preserveAspectRatio="xMidYMid meet">

<g transform="translate(0.000000,1280.000000) scale(0.100000,-0.100000)"
fill="#000000" stroke="none">
<path d="M7020 10860 c-8 -5 -46 -22 -85 -36 -143 -55 -228 -130 -299 -264
-16 -30 -36 -66 -46 -80 -9 -14 -22 -40 -28 -59 -17 -49 -115 -225 -168 -301
-79 -113 -150 -176 -234 -208 -19 -7 -120 -29 -225 -48 -443 -81 -770 -186
-1150 -368 -173 -84 -577 -305 -695 -381 -36 -23 -96 -62 -135 -87 -65 -41
-284 -203 -450 -331 -205 -159 -467 -418 -650 -641 -22 -27 -56 -69 -77 -92
-261 -307 -607 -890 -793 -1339 -43 -106 -168 -475 -200 -595 -48 -182 -166
-736 -158 -744 3 -2 46 -2 97 1 138 8 242 -28 370 -130 20 -16 65 -36 103 -46
37 -10 75 -21 84 -25 15 -7 17 22 22 316 8 480 33 627 207 1193 158 513 284
789 483 1054 207 277 454 516 780 756 258 190 391 273 762 472 72 39 157 85
190 103 111 60 369 188 515 255 80 37 244 117 365 178 584 293 889 530 1108
859 53 80 187 344 218 431 7 20 16 37 20 37 10 0 95 -235 118 -325 28 -111 44
-274 36 -364 -9 -90 -47 -247 -74 -299 -37 -70 -158 -207 -252 -284 -191 -157
-419 -262 -799 -368 -246 -68 -384 -112 -506 -160 -267 -106 -500 -274 -641
-462 l-70 -93 -84 -29 c-116 -41 -414 -190 -534 -268 -145 -94 -282 -208 -431
-360 -161 -162 -167 -169 -307 -357 -237 -315 -439 -704 -508 -976 -37 -149
-72 -506 -50 -520 10 -5 13 6 31 115 46 270 135 521 307 864 99 197 234 404
377 576 137 165 439 451 467 443 5 -2 9 2 9 7 0 6 5 10 10 10 6 0 24 9 39 21
16 12 40 22 55 22 14 1 28 8 31 15 3 7 9 11 15 7 5 -3 25 -2 44 3 29 9 37 6
61 -15 21 -20 25 -31 20 -52 -4 -14 -9 -39 -11 -55 -2 -16 -8 -34 -12 -40 -5
-6 -14 -29 -20 -51 -6 -22 -19 -65 -28 -95 -9 -30 -20 -68 -26 -85 -14 -43
-28 -95 -34 -130 -3 -16 -8 -37 -11 -45 -36 -93 -38 -652 -3 -695 6 -7 7 -14
4 -18 -3 -3 4 -27 17 -54 12 -26 23 -50 24 -53 0 -3 4 -19 8 -35 16 -67 139
-273 164 -274 6 -1 21 -17 33 -36 12 -19 25 -35 29 -35 4 0 29 -20 56 -45 28
-25 55 -45 62 -45 6 0 14 -9 18 -19 3 -10 17 -22 31 -25 13 -4 33 -14 42 -24
56 -53 189 -118 317 -153 44 -12 111 -30 149 -40 38 -11 92 -19 120 -19 28 0
78 -5 111 -11 115 -20 161 -23 380 -23 215 0 323 7 355 23 8 5 53 11 99 15 46
4 111 16 145 27 33 11 117 36 186 54 129 34 391 122 400 134 3 4 30 17 60 30
30 13 73 31 95 41 22 10 51 23 65 29 44 19 138 75 164 99 15 12 30 22 35 22 5
0 11 4 13 8 2 5 31 27 66 51 67 45 86 66 24 27 -123 -78 -373 -185 -557 -240
-358 -106 -491 -126 -850 -133 -267 -5 -272 -4 -455 26 -278 47 -464 109 -598
200 -83 56 -221 189 -282 270 -27 38 -50 71 -50 75 0 3 -13 27 -29 53 -92 150
-163 462 -154 673 5 132 46 367 67 387 9 9 18 -128 11 -176 -4 -30 -3 -51 3
-51 10 0 42 -91 42 -119 0 -9 9 -41 20 -71 12 -30 30 -82 42 -115 11 -33 29
-77 39 -97 11 -21 19 -42 19 -48 0 -6 7 -18 15 -27 9 -9 13 -23 10 -34 -5 -14
-1 -19 10 -19 12 0 16 -6 12 -20 -3 -11 -1 -23 4 -26 5 -3 7 -10 4 -15 -11
-17 6 -50 23 -47 12 2 16 -3 15 -19 -2 -13 2 -23 8 -23 6 0 9 -7 5 -15 -3 -8
-1 -15 4 -15 6 0 10 -7 10 -15 0 -9 8 -18 18 -22 33 -12 44 -25 30 -35 -9 -7
-4 -8 15 -5 15 2 25 2 23 -1 -5 -5 41 -38 86 -61 15 -8 25 -18 22 -23 -3 -4 4
-8 16 -8 26 0 60 -17 82 -42 9 -10 28 -21 43 -24 15 -3 57 -19 94 -36 327
-153 831 -263 1191 -261 200 1 412 25 393 44 -8 8 -80 17 -313 39 -710 67
-1025 147 -1312 333 -266 171 -441 393 -533 673 -57 173 -78 492 -43 635 34
135 110 288 199 402 197 252 539 452 1012 592 70 20 326 108 462 158 22 8 75
31 118 51 91 42 96 43 71 15 -19 -21 -19 -22 1 -15 15 4 23 0 30 -16 6 -13 19
-27 30 -33 11 -5 33 -21 48 -35 16 -14 32 -25 35 -26 55 -9 75 -20 83 -44 6
-15 15 -27 22 -28 46 -4 82 -20 79 -34 -1 -9 3 -20 9 -24 8 -5 10 -2 5 7 -4 8
0 5 8 -5 9 -11 16 -26 16 -33 0 -7 5 -12 12 -11 6 2 17 -7 23 -19 7 -13 14
-20 18 -17 3 3 10 -4 17 -15 6 -12 16 -21 24 -21 16 0 76 -53 76 -68 0 -7 6
-12 13 -12 19 0 49 -35 40 -45 -5 -4 1 -5 13 -1 13 4 26 1 34 -9 10 -12 10
-15 -1 -15 -10 0 -10 -3 -3 -8 6 -4 14 -16 18 -28 4 -13 14 -20 29 -20 17 1
21 -4 20 -21 -2 -16 1 -21 13 -16 10 3 17 -1 20 -14 3 -10 15 -23 26 -28 12
-6 23 -18 24 -28 4 -27 10 -30 27 -12 24 23 29 18 11 -10 -9 -14 -12 -25 -8
-25 5 0 3 -4 -5 -9 -12 -8 -12 -12 2 -25 8 -9 20 -16 26 -16 15 0 14 -13 -1
-29 -9 -9 -9 -12 -1 -7 6 3 17 1 25 -6 7 -7 19 -13 26 -14 28 -2 32 -5 32 -18
0 -8 -5 -16 -11 -18 -16 -5 -1 -48 17 -48 8 0 14 -5 14 -11 0 -13 30 -44 44
-44 12 -1 12 -8 1 -43 -6 -22 -5 -23 14 -13 12 7 21 8 21 2 0 -5 -6 -12 -12
-15 -10 -5 -10 -7 0 -12 24 -11 45 -38 33 -42 -6 -2 -11 -8 -11 -14 0 -5 8 -7
19 -3 12 3 21 0 25 -10 3 -8 1 -15 -4 -15 -6 0 -6 -9 0 -24 5 -15 5 -27 -3
-35 -8 -8 -8 -11 2 -11 7 0 10 -4 6 -9 -6 -10 34 -37 48 -33 5 1 5 -2 2 -8 -4
-7 4 -23 16 -37 l24 -26 -23 6 c-18 4 -22 2 -18 -10 3 -8 6 -17 6 -19 0 -2 6
-4 14 -4 7 0 16 -9 19 -20 3 -11 12 -20 22 -20 10 0 15 -7 13 -17 -2 -11 2
-17 10 -15 9 1 12 -6 10 -20 -2 -18 5 -27 31 -40 48 -24 54 -32 43 -54 -6 -11
-13 -27 -16 -37 -3 -10 -10 -15 -16 -12 -5 3 -7 0 -4 -8 7 -20 -75 -172 -143
-264 -56 -77 -154 -179 -288 -302 -79 -71 -75 -92 8 -39 145 92 317 255 424
401 60 80 90 115 61 67 -10 -15 -10 -22 0 -32 18 -18 14 -31 -9 -25 -13 3 -19
1 -16 -6 3 -7 10 -11 17 -9 8 2 9 -5 4 -20 -6 -20 -5 -21 10 -9 15 12 21 8 17
-12 -1 -5 4 -5 10 -1 15 9 92 -73 82 -89 -4 -7 -9 -30 -10 -51 -2 -22 -9 -44
-15 -49 -9 -6 -7 -7 6 -3 15 5 18 2 14 -19 -4 -20 -2 -23 8 -14 9 7 19 7 35
-2 13 -6 32 -12 44 -13 15 -1 20 -8 19 -28 0 -16 4 -28 8 -28 5 0 13 12 19 28
7 16 13 22 16 14 4 -9 15 -5 41 15 43 32 92 79 92 88 0 3 16 24 36 45 53 57
80 100 119 188 120 271 147 390 149 652 1 197 -2 219 -65 478 -17 67 -29 133
-27 145 3 20 10 15 68 -40 35 -35 93 -86 127 -115 35 -28 63 -55 63 -59 0 -5
20 -20 45 -35 25 -14 45 -30 45 -35 0 -5 18 -18 39 -29 22 -10 41 -23 43 -28
3 -7 64 -56 198 -157 25 -19 59 -46 76 -60 18 -14 35 -25 38 -25 8 0 61 -47
136 -120 31 -30 93 -90 138 -134 45 -43 82 -80 82 -83 0 -2 13 -21 29 -41 32
-41 78 -124 104 -190 49 -122 124 -197 267 -265 164 -78 322 -92 465 -43 44
16 86 33 92 38 17 14 2 41 -57 103 -26 28 -107 122 -180 209 -207 248 -284
320 -472 437 -339 212 -559 372 -987 718 -139 113 -279 225 -310 249 -92 71
-111 93 -127 152 -61 217 -202 529 -321 710 -94 142 -221 313 -344 461 -106
129 -438 466 -547 557 -63 52 -84 60 -112 42z m1041 -2392 c1 -98 -21 -274
-38 -317 -20 -48 -23 -35 -7 39 13 63 34 258 34 329 0 19 2 32 5 29 3 -3 6
-39 6 -80z m-426 -568 c3 -5 -1 -10 -10 -10 -9 0 -13 5 -10 10 3 6 8 10 10 10
2 0 7 -4 10 -10z m2345 -304 c53 -111 95 -159 208 -234 80 -53 46 -51 -57 3
-128 68 -166 106 -180 180 -6 33 -17 79 -25 102 -12 37 -11 53 1 53 2 0 26
-47 53 -104z"/>
<path d="M5470 9898 c-36 -4 -123 -15 -195 -23 -71 -9 -177 -24 -235 -35 -113
-20 -196 -33 -220 -35 -8 -1 -22 -4 -30 -7 -29 -11 -165 -50 -243 -69 -43 -10
-97 -28 -120 -38 -24 -11 -49 -19 -57 -18 -20 2 -191 -52 -210 -66 -28 -22
-60 -37 -78 -37 -10 0 -22 -4 -27 -9 -6 -5 -39 -21 -75 -36 -60 -24 -110 -47
-217 -97 -24 -11 -43 -24 -43 -29 0 -5 -6 -9 -12 -9 -7 0 -35 -12 -63 -26 -27
-15 -60 -32 -72 -38 -13 -6 -23 -14 -23 -18 0 -5 -9 -8 -20 -8 -11 0 -20 -4
-20 -8 0 -4 -16 -14 -35 -21 -19 -7 -35 -17 -35 -22 0 -6 -4 -8 -9 -4 -6 3
-13 0 -18 -7 -4 -7 -25 -22 -45 -33 -21 -11 -38 -23 -38 -27 0 -5 -6 -8 -14
-8 -20 0 -96 -51 -96 -64 0 -6 -5 -4 -11 4 -8 11 -12 12 -16 3 -2 -7 -9 -13
-15 -13 -10 0 -27 -13 -109 -77 -23 -18 -46 -33 -52 -33 -5 0 -25 -11 -43 -25
-18 -14 -36 -25 -41 -25 -4 0 -20 -10 -34 -22 -14 -13 -32 -27 -41 -33 -79
-49 -171 -120 -268 -205 -63 -56 -125 -106 -137 -112 -13 -6 -24 -15 -24 -20
-1 -4 -2 -12 -3 -17 0 -6 -25 -30 -54 -55 -28 -25 -68 -60 -87 -78 -18 -18
-49 -47 -67 -65 -18 -17 -44 -45 -58 -63 -61 -76 -77 -96 -105 -130 -17 -19
-55 -68 -84 -107 -29 -40 -57 -73 -62 -73 -5 0 -9 -5 -9 -12 0 -6 -22 -44 -50
-85 -27 -40 -50 -77 -50 -81 0 -4 -18 -28 -40 -52 -63 -70 -84 -103 -74 -113
3 -3 -4 -10 -15 -17 -12 -6 -21 -19 -21 -30 0 -10 -4 -20 -8 -22 -16 -6 -61
-74 -68 -102 -6 -26 -24 -53 -61 -92 -7 -7 -13 -29 -13 -48 0 -24 -5 -36 -14
-36 -8 0 -14 -10 -14 -22 -1 -44 -15 -93 -33 -120 -11 -14 -19 -36 -19 -48 0
-12 -13 -41 -30 -65 -16 -24 -30 -48 -30 -54 0 -20 -25 -91 -32 -91 -3 0 -10
-15 -13 -32 -4 -18 -15 -49 -25 -68 -16 -31 -26 -54 -36 -85 -13 -36 -66 -238
-74 -275 -5 -25 -18 -72 -30 -105 -12 -33 -23 -75 -26 -95 -8 -76 -22 -142
-31 -149 -16 -10 -23 -51 -29 -161 -2 -58 -6 -136 -8 -175 -2 -38 1 -78 6 -88
7 -13 5 -26 -7 -43 -12 -19 -14 -29 -5 -39 8 -10 8 -24 0 -55 -6 -22 -9 -49
-6 -58 3 -9 8 -57 11 -107 4 -49 12 -105 18 -123 9 -25 8 -37 -1 -52 -15 -24
-15 -33 -2 -25 6 3 10 0 10 -9 0 -8 11 -27 24 -43 20 -24 23 -38 22 -93 -3
-70 16 -125 40 -116 8 3 14 2 14 -3 0 -14 37 -20 49 -8 15 15 15 12 -14 -111
-62 -259 -49 -568 33 -780 32 -82 107 -196 165 -249 167 -152 395 -160 602
-22 155 104 265 279 309 495 18 88 19 94 8 94 -5 0 -16 -26 -26 -57 -86 -274
-294 -458 -541 -480 -320 -27 -558 299 -555 759 1 98 3 138 9 189 0 5 6 7 13
3 8 -5 9 -2 5 10 -5 13 -3 15 11 8 19 -10 43 -5 54 12 5 8 8 7 8 -1 0 -7 5
-13 11 -13 5 0 7 5 3 12 -5 8 -2 9 10 5 10 -4 24 -1 32 8 18 17 34 20 34 5 0
-5 5 -10 10 -10 6 0 10 8 10 18 0 13 2 14 9 3 7 -11 11 -10 20 5 8 14 11 15
11 4 0 -12 4 -11 15 4 12 16 17 17 30 6 12 -10 16 -9 22 6 7 20 43 71 43 61 0
-3 -13 -31 -29 -62 -32 -61 -55 -168 -49 -225 l3 -35 19 55 c53 153 150 222
276 197 65 -13 135 -73 177 -154 36 -69 52 -124 62 -218 l7 -70 13 45 c16 55
9 223 -13 291 -21 66 -61 143 -97 184 -17 19 -26 35 -21 35 6 0 16 -8 21 -17
6 -10 11 -13 11 -8 0 6 11 10 24 10 20 0 22 -3 13 -15 -6 -8 0 -5 14 7 15 14
41 24 64 25 22 2 42 6 45 10 3 4 24 9 47 10 23 2 39 6 36 11 -7 12 12 8 25 -5
7 -7 12 -8 12 -4 0 5 7 3 15 -4 13 -11 14 -10 8 6 -31 82 -126 201 -205 257
-100 70 -184 99 -292 100 -129 1 -215 -28 -306 -102 -76 -61 -87 -66 -31 -12
29 29 84 67 120 86 l67 33 33 184 c35 196 135 600 200 813 62 204 169 491 224
603 6 13 10 36 9 50 -1 19 1 23 7 13 6 -9 11 -10 15 -2 4 6 5 11 1 11 -3 0 6
18 20 41 15 22 24 46 21 52 -2 7 -8 2 -11 -10 -9 -27 -22 -30 -29 -5 -4 13 -4
13 -3 -3 1 -11 -7 -31 -17 -45 -15 -21 -17 -22 -13 -5 14 55 17 95 8 95 -6 0
-10 19 -9 42 1 24 -3 43 -10 46 -7 2 -12 12 -12 23 0 10 -4 19 -10 19 -5 0
-10 6 -10 14 0 8 -7 16 -15 20 -8 3 -12 12 -9 21 3 8 1 15 -5 15 -6 0 -16 11
-23 24 -6 14 -20 26 -32 28 -18 3 -20 9 -19 48 3 42 2 43 -10 20 -6 -14 -20
-34 -29 -44 -10 -11 -18 -30 -18 -42 0 -12 -4 -24 -9 -26 -13 -4 -127 -247
-168 -358 -59 -161 -77 -204 -80 -194 -2 6 17 68 42 138 176 498 458 999 777
1382 134 161 355 390 482 499 326 281 726 552 1056 717 421 210 963 358 1520
414 176 17 246 35 125 32 -38 -1 -99 -6 -135 -10z m-3542 -2618 c3 -7 0 -10
-6 -6 -6 3 -13 -2 -15 -11 -3 -11 -5 -7 -6 10 -1 29 18 34 27 7z m-40 -50 c2
-22 1 -23 -8 -7 -6 9 -15 15 -21 12 -5 -4 -9 1 -9 10 0 27 35 13 38 -15z m151
-244 c-9 -8 -10 -7 -5 7 3 10 7 24 7 30 1 7 3 4 6 -7 3 -10 -1 -23 -8 -30z
m-756 -2026 c-3 -12 -8 -19 -11 -16 -5 6 5 36 12 36 2 0 2 -9 -1 -20z m-32
-73 c-13 -13 -15 1 -4 30 7 17 8 17 11 -1 2 -10 -1 -23 -7 -29z m379 8 c-7 -9
-15 -13 -17 -11 -7 7 7 26 19 26 6 0 6 -6 -2 -15z m-37 -30 c-3 -9 -8 -14 -10
-11 -3 3 -2 9 2 15 9 16 15 13 8 -4z"/>
<path d="M8460 9475 c0 -2 64 -36 143 -76 78 -39 147 -75 152 -79 6 -4 35 -21
65 -37 188 -103 397 -238 555 -358 139 -106 218 -168 240 -190 11 -11 38 -34
60 -50 37 -28 74 -59 132 -112 13 -13 27 -23 32 -23 4 0 13 -10 20 -23 7 -12
22 -27 34 -32 15 -7 21 -17 19 -31 -2 -16 4 -23 23 -28 14 -4 25 -12 25 -19 1
-15 47 -50 58 -43 4 2 14 0 22 -5 13 -8 13 -10 0 -19 -12 -8 -12 -10 -1 -10
17 0 71 -58 71 -77 0 -17 26 -17 34 0 3 6 3 1 0 -12 -4 -14 -1 -27 7 -31 7 -5
17 -23 23 -42 9 -25 17 -34 39 -36 15 -2 27 -9 27 -17 0 -23 31 -46 54 -40 11
2 15 2 9 -1 -20 -9 -16 -22 17 -51 17 -14 30 -32 30 -40 0 -7 4 -13 9 -13 5 0
16 -17 24 -39 9 -21 27 -48 41 -59 15 -11 26 -24 26 -30 0 -5 15 -19 33 -32
17 -12 48 -43 67 -69 19 -25 47 -58 62 -74 16 -15 28 -31 28 -35 0 -7 38 -52
99 -117 48 -51 129 -154 150 -190 13 -22 41 -61 63 -87 21 -26 38 -51 38 -56
0 -5 17 -24 38 -44 20 -19 55 -64 77 -101 22 -37 43 -67 48 -67 4 0 7 -6 7
-14 0 -8 6 -21 13 -28 6 -7 24 -29 38 -48 15 -19 36 -45 48 -57 12 -12 21 -27
21 -32 0 -6 17 -36 38 -67 20 -32 55 -89 77 -129 22 -39 52 -85 68 -101 15
-16 27 -32 27 -37 0 -7 37 -64 50 -77 3 -3 12 -18 20 -35 8 -16 21 -34 27 -38
7 -4 13 -15 13 -23 0 -9 20 -47 45 -85 25 -38 45 -72 45 -75 0 -2 11 -23 26
-45 31 -49 46 -76 114 -204 70 -133 96 -168 121 -160 12 4 21 1 25 -9 4 -9 14
-15 23 -14 10 2 15 -3 13 -14 -2 -10 2 -18 8 -18 21 0 68 -43 63 -56 -3 -8 2
-17 11 -20 9 -3 16 -10 16 -15 0 -5 29 -69 64 -142 35 -72 67 -143 71 -157 4
-14 15 -41 25 -60 40 -78 78 -169 72 -174 -3 -3 -1 -6 5 -6 5 0 16 -19 23 -42
19 -65 89 -197 90 -170 2 90 -214 710 -368 1057 -153 346 -374 747 -575 1045
-125 185 -419 567 -551 715 -411 462 -716 740 -1234 1129 -278 208 -402 288
-657 421 -71 37 -175 91 -230 120 -95 51 -356 165 -376 165 -5 0 -9 -2 -9 -5z"/>
<path d="M6506 9091 c-4 -5 -2 -12 3 -15 5 -4 12 -2 15 3 4 5 2 12 -3 15 -5 4
-12 2 -15 -3z"/>
<path d="M6875 8810 c3 -5 11 -10 16 -10 6 0 7 5 4 10 -3 6 -11 10 -16 10 -6
0 -7 -4 -4 -10z"/>
<path d="M6028 8530 c-150 -35 -229 -67 -353 -148 -267 -172 -433 -439 -475
-761 -13 -102 -7 -232 15 -316 26 -103 95 -260 95 -217 0 5 -11 41 -25 82
-103 302 -55 629 122 847 72 88 178 183 206 183 8 0 17 5 19 11 2 6 46 22 98
36 116 30 278 40 405 23 155 -20 165 -22 171 -31 3 -5 17 -9 32 -9 15 -1 45
-9 67 -20 22 -11 48 -19 57 -20 9 0 20 -4 23 -10 3 -5 15 -10 26 -10 10 0 19
-4 19 -9 0 -5 10 -11 23 -15 12 -3 31 -14 42 -24 11 -10 29 -21 39 -25 43 -17
104 -64 141 -110 22 -27 47 -56 56 -65 52 -55 102 -139 138 -232 54 -143 72
-238 73 -400 l1 -135 -48 -145 c-26 -80 -53 -151 -59 -159 -5 -7 -15 -21 -21
-30 -62 -104 -145 -173 -258 -216 -93 -35 -270 -76 -357 -82 -92 -8 -89 -9
155 -69 173 -42 200 -46 307 -46 239 2 388 26 498 82 19 9 53 20 75 23 39 6
130 39 210 76 22 10 58 26 80 36 80 34 92 40 185 101 80 52 166 124 149 124
-3 0 -48 -22 -100 -48 -254 -130 -502 -211 -785 -258 -107 -17 -296 -20 -335
-5 -23 9 -23 10 21 31 120 58 181 100 292 202 216 197 298 404 298 748 -1 235
-21 334 -99 485 -49 95 -131 210 -176 246 -5 4 -28 23 -50 42 -59 50 -170 124
-238 159 -209 105 -511 136 -759 78z"/>
<path d="M7452 8125 c-7 -8 -9 -15 -4 -15 5 0 15 7 22 15 16 19 -1 19 -18 0z"/>
<path d="M7525 7959 c-4 -6 -4 -13 -1 -16 3 -4 6 -1 6 7 0 10 4 10 18 -1 15
-13 16 -12 3 4 -16 20 -18 20 -26 6z"/>
<path d="M1933 7445 c-3 -9 -3 -18 -1 -21 3 -3 8 4 11 16 6 23 -1 27 -10 5z"/>
<path d="M2788 7243 c-9 -10 -28 -45 -43 -78 -14 -33 -32 -71 -39 -85 -21 -41
-172 -508 -191 -590 -9 -41 -21 -85 -26 -98 -12 -31 -12 -31 11 -25 15 4 22
-2 30 -22 6 -15 7 -32 3 -38 -10 -17 -5 -65 11 -96 8 -14 12 -38 9 -51 -3 -17
3 -34 16 -49 25 -28 27 -41 6 -41 -18 0 -18 1 0 -44 9 -20 15 -42 13 -49 -1
-7 5 -23 15 -37 9 -14 18 -36 20 -48 4 -27 7 -30 40 -36 16 -3 44 -10 63 -16
31 -11 37 -10 49 7 14 17 14 17 15 -1 0 -20 0 -20 15 0 10 14 14 48 15 126 0
236 58 517 145 713 7 17 31 69 53 118 23 48 36 87 31 87 -5 0 -12 -7 -15 -15
-10 -24 -24 -17 -24 10 0 15 -11 36 -25 49 -29 27 -32 43 -7 48 11 3 -2 13
-38 30 -93 44 -119 52 -135 38 -29 -24 -67 57 -49 104 3 9 10 14 14 11 4 -3
14 3 21 12 10 12 10 14 2 9 -18 -10 -16 10 3 40 20 29 14 42 -8 17z"/>
<path d="M2075 7159 c-10 -15 0 -21 27 -17 l23 3 -22 13 c-15 8 -24 9 -28 1z"/>
<path d="M2157 7120 c3 -11 9 -17 15 -14 5 3 4 12 -3 20 -16 19 -18 18 -12 -6z"/>
<path d="M7990 7020 c0 -5 7 -10 16 -10 8 0 12 5 9 10 -3 6 -10 10 -16 10 -5
0 -9 -4 -9 -10z"/>
<path d="M4690 6556 c7 -7 14 -6 21 1 9 9 7 12 -9 10 -14 -1 -18 -5 -12 -11z"/>
<path d="M4773 6480 c-1 -11 6 -25 16 -32 10 -7 26 -25 35 -40 18 -27 46 -38
46 -18 0 6 -7 10 -16 10 -10 0 -14 6 -11 14 4 9 -1 17 -12 21 -24 7 -59 45
-42 45 7 0 9 5 6 10 -10 16 -21 11 -22 -10z"/>
<path d="M4888 6372 c-17 -19 -13 -43 6 -36 7 3 21 -4 31 -16 19 -21 45 -27
45 -10 0 6 -7 10 -15 10 -8 0 -15 5 -15 11 0 6 -8 22 -19 35 -17 22 -19 22
-33 6z"/>
<path d="M4980 6291 c0 -5 7 -11 15 -15 8 -3 15 -1 15 3 0 5 -7 11 -15 15 -8
3 -15 1 -15 -3z"/>
<path d="M4980 5420 c8 -5 20 -10 25 -10 6 0 3 5 -5 10 -8 5 -19 10 -25 10 -5
0 -3 -5 5 -10z"/>
<path d="M5028 5423 c7 -3 16 -2 19 1 4 3 -2 6 -13 5 -11 0 -14 -3 -6 -6z"/>
<path d="M5078 5423 c7 -3 16 -2 19 1 4 3 -2 6 -13 5 -11 0 -14 -3 -6 -6z"/>
<path d="M5138 5423 c7 -3 16 -2 19 1 4 3 -2 6 -13 5 -11 0 -14 -3 -6 -6z"/>
<path d="M4878 5413 c6 -2 18 -2 25 0 6 3 1 5 -13 5 -14 0 -19 -2 -12 -5z"/>
<path d="M4938 5413 c7 -3 16 -2 19 1 4 3 -2 6 -13 5 -11 0 -14 -3 -6 -6z"/>
<path d="M4057 5394 c-1 -1 -60 -4 -132 -8 -240 -12 -350 -18 -375 -21 -27 -3
-27 -4 -16 -78 6 -40 5 -46 -14 -52 -18 -6 -20 -12 -16 -48 19 -145 52 -408
90 -712 25 -192 48 -378 52 -412 4 -38 11 -63 18 -63 7 0 61 9 122 20 231 44
650 118 679 122 30 3 30 3 27 61 -3 48 0 61 15 72 14 11 15 14 3 15 -23 0
-484 -81 -733 -128 l-97 -19 -5 21 c-2 12 -9 62 -15 111 -6 50 -24 198 -40
330 -43 352 -70 593 -69 618 l0 22 9 -22 c9 -23 17 -23 64 -4 16 6 35 10 41 7
7 -2 31 4 55 15 48 22 54 23 45 9 -3 -5 7 -5 25 1 18 7 27 15 23 22 -3 7 4 3
17 -8 21 -18 23 -18 17 -2 -6 15 -4 16 14 6 15 -8 19 -8 15 0 -4 6 0 11 8 11
9 0 16 -4 16 -10 0 -5 18 -3 40 6 23 9 44 14 47 10 3 -3 13 0 21 7 8 6 27 13
41 13 14 1 37 6 51 11 18 8 27 7 32 -1 6 -8 8 -7 8 2 0 6 9 12 21 12 11 0 29
5 40 10 13 8 19 7 19 0 0 -6 5 -8 11 -5 6 4 8 13 5 21 -4 12 -2 12 14 4 14 -8
26 -7 41 1 22 11 38 0 39 -28 0 -6 4 -14 8 -17 5 -3 6 14 3 37 l-6 42 -138 0
c-76 0 -139 0 -140 -1z"/>
<path d="M2810 5356 c-82 -28 -121 -52 -188 -118 -55 -54 -123 -177 -137 -248
l-7 -35 22 20 c12 11 32 19 45 17 13 -2 26 2 30 8 5 8 11 8 21 -1 12 -10 13
-9 8 6 -6 15 -4 16 14 6 17 -9 22 -9 22 1 0 9 3 9 10 -2 7 -10 12 -12 18 -4
14 21 50 35 58 23 4 -8 9 -7 14 2 6 9 12 10 22 2 10 -9 23 -7 51 6 20 10 34
21 30 25 -5 4 -3 6 2 5 6 -2 20 2 33 9 12 7 22 10 22 7 0 -3 16 1 35 9 19 8
37 11 40 7 2 -5 -16 -14 -40 -20 -53 -13 -115 -65 -150 -125 -22 -38 -55 -149
-55 -188 0 -31 16 -20 35 23 10 22 40 60 67 84 102 92 242 84 357 -20 21 -19
41 -35 44 -35 9 0 157 209 157 222 0 6 -7 20 -16 29 -16 17 -15 21 10 54 31
40 28 50 -31 107 -53 51 -146 105 -223 129 -89 27 -229 25 -320 -5z m552 -230
c-14 -23 -28 -43 -31 -46 -3 -3 -21 -27 -40 -55 -19 -27 -36 -52 -38 -54 -2
-3 -18 9 -36 26 -66 62 -144 99 -197 95 -22 -2 -23 -1 -7 9 10 6 27 9 36 6 10
-2 25 0 34 4 10 6 18 5 22 -1 5 -7 18 -4 40 9 24 14 35 16 38 8 3 -9 7 -9 18
-1 20 16 69 27 107 25 17 -2 32 1 32 6 0 5 11 9 24 9 l24 0 -26 -40z"/>
<path d="M5694 5283 c5 -22 77 -469 138 -853 5 -36 13 -68 16 -72 4 -4 70 1
147 10 157 19 155 18 137 99 -9 37 -8 42 11 47 12 3 19 8 16 11 -3 3 -70 -2
-147 -12 -78 -9 -144 -14 -145 -12 -2 2 -29 173 -61 379 -32 206 -61 387 -63
403 -4 21 -11 27 -30 27 -22 0 -24 -3 -19 -27z"/>
<path d="M6423 5302 c-10 -6 -8 -34 8 -127 22 -128 26 -140 59 -170 l22 -20
-6 30 c-3 17 -15 85 -26 153 -23 147 -26 154 -57 134z"/>
<path d="M6937 5292 c-14 -3 -17 -10 -13 -25 3 -12 17 -87 31 -167 14 -80 44
-248 68 -375 l42 -230 35 0 c30 1 180 13 245 20 22 2 23 11 11 89 -5 31 -4 46
3 42 5 -4 13 -1 16 5 7 11 -86 6 -217 -10 -32 -4 -61 -5 -66 -2 -4 3 -21 78
-36 166 -15 88 -41 231 -56 318 -15 87 -31 162 -36 166 -5 4 -17 6 -27 3z"/>
<path d="M7284 5199 c4 -35 12 -69 17 -76 6 -7 51 -13 117 -15 87 -2 115 -7
150 -26 l43 -22 24 24 c31 31 31 53 2 97 -38 57 -84 73 -231 77 l-129 4 7 -63z"/>
<path d="M8020 5244 c0 -35 86 -417 100 -444 23 -44 95 -112 149 -140 84 -42
156 -55 321 -54 184 2 283 19 387 70 96 46 125 84 131 167 l4 62 -33 -31 c-90
-84 -248 -125 -479 -126 -140 0 -230 17 -316 59 -62 30 -128 96 -150 150 -11
26 -63 264 -64 291 0 5 -50 1 -50 -4z"/>
<path d="M8740 5191 c0 -34 54 -261 62 -261 5 0 13 11 20 24 8 19 6 48 -12
134 -21 100 -25 111 -46 115 -17 3 -24 0 -24 -12z"/>
<path d="M4092 5157 l-252 -21 6 -50 c4 -28 7 -59 8 -68 1 -10 5 -20 9 -24 6
-6 428 22 475 32 24 5 24 14 6 102 -4 18 0 25 16 29 17 4 18 8 8 14 -7 5 -15
8 -18 7 -3 0 -119 -10 -258 -21z"/>
<path d="M9250 5155 c0 -14 95 -448 107 -489 5 -17 17 -18 257 -12 342 9 549
17 557 22 3 2 2 22 -4 44 l-11 40 -101 1 c-55 1 -168 2 -252 3 -142 1 -196 9
-142 20 13 3 136 7 272 10 137 2 251 7 255 11 7 7 -425 0 -670 -11 l-137 -7
-5 24 c-3 13 -22 96 -41 183 -20 88 -38 163 -41 168 -9 14 -44 9 -44 -7z"/>
<path d="M5004 4980 c-27 -107 -37 -160 -29 -160 7 0 22 38 34 85 13 47 25 85
26 85 2 0 23 -32 46 -70 23 -39 46 -73 52 -77 11 -7 88 -5 95 2 2 2 -33 65
-77 140 -45 76 -81 141 -81 146 0 5 -6 9 -13 9 -8 0 -27 -59 -53 -160z"/>
<path d="M10530 5109 c-39 -5 -35 -6 29 -7 40 -1 103 -7 140 -13 149 -25 217
-38 236 -45 13 -5 17 -4 10 3 -13 13 -73 27 -195 47 -123 19 -165 22 -220 15z"/>
<path d="M10189 5073 c6 -13 17 -23 24 -23 7 0 -3 -12 -20 -26 -41 -32 -42
-57 -4 -95 36 -36 57 -37 92 -3 l26 25 83 -15 c45 -9 90 -16 99 -16 14 1 14 2
-1 14 -10 7 -18 16 -18 18 0 12 58 16 105 8 28 -5 88 -14 133 -20 46 -6 91
-14 100 -17 9 -4 13 -2 9 4 -7 10 -73 23 -262 48 -217 30 -305 54 -354 98
l-24 22 12 -22z"/>
<path d="M10999 5073 c-13 -16 -12 -17 4 -4 16 13 21 21 13 21 -2 0 -10 -8
-17 -17z"/>
<path d="M7909 4994 c-69 -74 -260 -123 -482 -124 -45 0 -69 -4 -72 -12 -2 -7
1 -40 8 -73 l12 -60 100 3 c298 11 474 105 475 255 0 44 -8 46 -41 11z"/>
<path d="M6084 4978 c3 -18 8 -53 12 -78 4 -25 11 -53 16 -63 9 -17 261 -221
421 -340 63 -47 83 -57 105 -53 15 3 59 8 97 11 114 9 127 14 122 38 -20 84
-20 97 4 106 32 13 17 13 -120 0 l-117 -11 -107 81 c-146 110 -411 323 -415
333 -2 4 -8 8 -14 8 -6 0 -8 -13 -4 -32z"/>
<path d="M11563 4993 c4 -6 42 -13 85 -16 43 -3 86 -9 97 -13 12 -5 16 -4 12
4 -4 6 -38 13 -75 17 -37 3 -80 9 -96 12 -17 3 -26 1 -23 -4z"/>
<path d="M11775 4971 c6 -5 53 -15 105 -21 52 -6 104 -13 115 -16 14 -4 17 -3
10 5 -6 5 -53 15 -105 21 -52 6 -104 13 -115 16 -14 4 -17 3 -10 -5z"/>
<path d="M11207 4954 c-2 -2 11 -55 28 -117 18 -61 35 -124 39 -139 l6 -28
148 0 c139 0 276 -4 580 -15 110 -4 132 -2 132 9 0 8 -5 18 -11 22 -13 7 -169
19 -399 29 -85 4 -158 9 -162 12 -5 2 -8 11 -8 19 0 10 12 14 43 14 49 -1 274
-16 365 -26 56 -6 62 -5 62 12 0 14 -14 24 -50 37 -43 15 -99 19 -361 24 -206
4 -312 10 -317 17 -4 6 -14 36 -23 65 -12 45 -20 56 -42 62 -14 4 -28 5 -30 3z"/>
<path d="M12040 4936 c0 -2 11 -6 25 -8 14 -3 25 -1 25 3 0 5 -11 9 -25 9 -14
0 -25 -2 -25 -4z"/>
<path d="M11585 4900 c-14 -22 10 -28 135 -35 110 -7 123 -6 112 8 -9 10 -42
17 -110 21 -53 4 -104 9 -114 12 -9 3 -19 0 -23 -6z"/>
<path d="M11850 4881 c8 -5 47 -11 85 -14 39 -4 63 -3 55 2 -8 5 -46 11 -85
14 -39 4 -63 3 -55 -2z"/>
<path d="M11098 4869 c-10 -5 -53 -17 -95 -26 -114 -23 -555 -23 -672 0 -87
18 -108 20 -100 12 15 -14 172 -36 294 -41 178 -6 257 -13 275 -24 28 -17 -2
-25 -106 -28 -100 -4 -202 5 -347 30 l-68 11 -36 -37 c-20 -20 -33 -39 -30
-43 17 -17 174 -33 372 -39 175 -5 243 -3 333 10 120 17 202 45 202 70 0 19
-27 45 -59 57 -25 10 -25 10 17 29 23 11 42 21 42 25 0 7 -2 6 -22 -6z"/>
<path d="M12015 4870 c3 -5 14 -10 23 -10 15 0 15 2 2 10 -20 13 -33 13 -25 0z"/>
<path d="M2430 4774 c-15 -39 -12 -261 5 -358 46 -265 210 -468 416 -515 118
-28 283 -2 404 62 72 39 165 123 211 192 l34 50 -24 24 -25 24 -61 -57 c-112
-103 -256 -159 -415 -159 -137 0 -241 45 -341 150 -116 120 -183 312 -185 526
0 48 -3 87 -5 87 -3 0 -9 -12 -14 -26z"/>
<path d="M11970 4796 c0 -2 11 -6 25 -8 14 -3 25 -1 25 3 0 5 -11 9 -25 9 -14
0 -25 -2 -25 -4z"/>
<path d="M12045 4790 c28 -12 47 -12 40 0 -3 6 -18 10 -33 9 -24 0 -25 -1 -7
-9z"/>
<path d="M12105 4790 c3 -5 15 -10 26 -10 11 0 17 5 14 10 -3 6 -15 10 -26 10
-11 0 -17 -4 -14 -10z"/>
<path d="M4160 4709 c-113 -14 -216 -28 -230 -30 -27 -4 -27 -4 -15 -91 6 -47
7 -48 41 -48 19 0 98 9 177 20 78 10 158 20 177 22 l35 3 -1 60 c-1 45 2 63
15 71 9 7 14 14 11 16 -3 2 -97 -8 -210 -23z"/>
<path d="M5240 4614 c-8 -2 -84 -13 -169 -23 -84 -11 -157 -23 -160 -28 -4 -4
-18 -54 -31 -110 -27 -116 -7 -102 -175 -128 -135 -22 -144 -24 -142 -44 0 -9
-5 -38 -12 -64 -8 -26 -11 -51 -7 -54 3 -4 72 4 153 18 l146 24 26 110 26 109
165 22 c91 12 190 24 221 28 l57 6 53 -90 54 -91 65 6 c93 8 239 31 246 38 4
3 -10 29 -30 57 -20 27 -36 52 -36 55 0 3 15 5 33 5 17 0 39 5 47 10 21 14 1
13 -118 -4 -53 -8 -116 -16 -140 -18 l-43 -3 -53 85 -53 85 -54 2 c-30 0 -61
-1 -69 -3z"/>
<path d="M9240 4570 c-305 -9 -227 -12 315 -10 93 0 154 4 146 9 -15 9 -183
10 -461 1z"/>
<path d="M9842 4574 c7 -6 1180 -5 1187 1 2 3 -265 5 -594 5 -329 0 -596 -3
-593 -6z"/>
<path d="M11058 4573 c7 -3 16 -2 19 1 4 3 -2 6 -13 5 -11 0 -14 -3 -6 -6z"/>
<path d="M11308 4563 c6 -2 18 -2 25 0 6 3 1 5 -13 5 -14 0 -19 -2 -12 -5z"/>
<path d="M11368 4563 c6 -2 18 -2 25 0 6 3 1 5 -13 5 -14 0 -19 -2 -12 -5z"/>
<path d="M11618 4563 c12 -2 32 -2 45 0 12 2 2 4 -23 4 -25 0 -35 -2 -22 -4z"/>
<path d="M8843 4553 c15 -2 39 -2 55 0 15 2 2 4 -28 4 -30 0 -43 -2 -27 -4z"/>
<path d="M8488 4543 c7 -3 16 -2 19 1 4 3 -2 6 -13 5 -11 0 -14 -3 -6 -6z"/>
<path d="M8588 4543 c6 -2 18 -2 25 0 6 3 1 5 -13 5 -14 0 -19 -2 -12 -5z"/>
<path d="M7395 4499 c-181 -19 -269 -37 -195 -38 33 -1 207 13 295 24 22 2 80
9 129 14 49 6 91 13 94 16 11 10 -147 2 -323 -16z"/>
<path d="M6863 4423 c9 -2 25 -2 35 0 9 3 1 5 -18 5 -19 0 -27 -2 -17 -5z"/>
<path d="M6738 4403 c7 -3 16 -2 19 1 4 3 -2 6 -13 5 -11 0 -14 -3 -6 -6z"/>
<path d="M11630 4403 c-284 -12 -1074 -55 -1240 -68 -30 -2 -102 -7 -160 -10
-58 -4 -190 -15 -295 -25 -104 -11 -255 -24 -335 -30 -80 -6 -165 -13 -190
-15 -545 -50 -1153 -125 -1665 -205 -71 -11 -209 -31 -305 -45 -262 -36 -605
-99 -1070 -195 -162 -33 -365 -74 -450 -91 -85 -16 -222 -45 -305 -64 -82 -19
-256 -57 -385 -84 -129 -28 -338 -73 -465 -101 -265 -59 -427 -94 -538 -116
-63 -12 -167 -36 -297 -70 -72 -18 -91 -21 -94 -15 -3 4 28 15 67 25 40 10 83
23 97 29 14 6 28 10 31 9 17 -3 124 38 122 47 -2 6 4 8 12 5 8 -4 15 -1 15 6
0 7 6 10 14 7 7 -3 18 -1 24 5 8 8 16 7 27 -2 13 -11 16 -11 13 0 -2 11 6 14
30 11 24 -2 32 2 32 13 0 21 -56 22 -68 1 -5 -11 -9 1 -9 36 -1 35 -7 55 -19
63 -9 7 -14 18 -10 24 13 22 -21 12 -36 -10 -12 -18 -15 -19 -15 -5 0 9 3 17
6 17 4 0 12 9 19 21 8 12 9 18 3 14 -6 -3 -11 -1 -11 4 0 6 8 11 19 11 14 0
20 10 25 42 5 28 3 44 -4 46 -6 2 -15 15 -20 28 -6 15 -15 22 -25 18 -8 -3
-15 -10 -15 -15 0 -5 -4 -9 -10 -9 -5 0 -10 11 -10 24 0 56 -12 85 -34 83 -12
-1 -20 3 -18 11 3 15 -3 15 -30 1 -13 -7 -24 -7 -30 -1 -12 12 37 25 64 16 13
-4 18 -2 14 4 -6 10 37 28 90 38 15 3 31 7 36 10 5 3 41 14 81 24 40 10 97 26
127 35 30 9 150 38 265 65 401 93 438 102 425 110 -6 4 -42 -1 -78 -10 -37
-10 -236 -52 -442 -94 -206 -41 -465 -101 -575 -131 -110 -31 -222 -62 -250
-70 -27 -7 -115 -31 -195 -54 -317 -88 -473 -131 -645 -176 -225 -59 -600
-161 -641 -175 -17 -5 -39 -10 -49 -10 -10 0 -32 -4 -49 -10 -17 -5 -67 -16
-111 -25 -44 -8 -120 -27 -170 -41 -106 -31 -171 -45 -203 -44 -12 0 -39 -9
-59 -20 -23 -12 -46 -17 -64 -13 -16 3 -35 0 -43 -6 -10 -8 -16 -9 -21 -1 -4
7 -13 6 -28 -2 -12 -7 -28 -11 -34 -10 -7 2 -13 -4 -13 -13 0 -8 -4 -15 -10
-15 -5 0 -10 5 -10 10 0 47 -108 -57 -117 -112 -3 -21 -10 -41 -14 -44 -5 -3
-2 -13 8 -22 16 -16 15 -17 -5 -20 -12 -2 -22 -8 -22 -14 0 -5 6 -8 13 -5 15
6 23 -48 7 -58 -6 -4 -6 -15 0 -31 6 -14 10 -36 10 -50 0 -21 9 -28 32 -26 3
1 9 -5 12 -13 3 -8 1 -15 -4 -15 -5 0 -7 -7 -4 -15 4 -8 15 -15 25 -15 11 0
22 -7 25 -15 4 -8 10 -13 14 -10 4 3 19 -4 31 -15 13 -11 20 -19 16 -20 -4 0
-3 -9 4 -21 7 -14 17 -19 30 -16 11 3 19 0 19 -7 0 -14 58 -34 116 -42 20 -2
43 -8 51 -13 9 -4 30 -5 47 -1 17 4 40 6 51 4 27 -4 78 -6 90 -4 6 1 35 2 65
2 30 0 60 4 65 8 6 3 31 8 57 9 25 1 70 9 100 17 29 8 67 16 83 18 94 11 225
42 261 62 24 13 56 24 73 24 16 0 36 6 43 13 7 6 27 13 43 15 17 2 56 12 88
23 31 10 75 19 97 19 22 0 40 5 40 11 0 7 15 9 43 6 23 -3 47 -2 52 2 11 8 85
31 125 38 13 2 32 11 41 19 8 8 27 14 42 14 14 0 28 4 32 9 3 5 31 15 63 21
31 6 64 14 72 19 9 5 40 12 70 16 30 4 68 13 84 21 16 8 33 14 39 14 5 0 23 6
40 14 18 8 86 26 152 40 267 60 392 89 437 102 27 8 69 17 95 20 27 3 57 9 68
14 32 13 66 19 60 10 -3 -4 12 -15 33 -23 36 -14 72 -16 102 -4 8 3 51 13 94
22 80 17 106 31 106 58 0 43 67 63 535 158 312 63 274 54 455 105 52 15 129
33 170 40 41 7 100 18 129 23 50 10 120 30 179 52 13 5 34 9 47 9 26 0 162 24
230 41 47 11 54 13 165 32 47 8 128 25 180 37 52 12 113 24 135 27 22 2 56 9
75 14 19 5 49 9 67 9 17 0 34 4 37 9 3 5 25 9 48 9 64 1 141 13 155 24 6 5 29
11 50 12 21 2 45 6 53 9 8 3 40 8 70 11 30 3 66 8 80 11 27 6 81 14 120 20 14
2 95 10 181 19 136 14 288 35 479 67 30 5 75 9 100 10 25 1 79 8 120 16 41 8
104 18 140 23 36 5 83 12 105 15 22 4 65 8 95 10 30 3 109 9 175 15 162 14
218 19 295 25 36 3 90 7 120 10 30 3 87 8 125 11 108 8 223 22 232 27 4 3 46
8 93 11 143 11 203 16 240 21 66 8 155 15 275 21 154 8 197 11 215 17 26 9
319 30 465 33 195 5 398 18 470 30 22 4 50 6 62 5 11 -1 24 3 28 8 3 6 15 11
26 11 10 0 27 5 37 10 9 6 55 19 101 30 46 10 85 21 88 23 2 3 -24 8 -59 11
-56 6 -120 6 -298 -1z m-7620 -582 c0 -11 -31 -24 -39 -16 -3 3 1 10 9 15 19
12 30 12 30 1z m88 -83 c-2 -4 6 -14 17 -23 18 -15 18 -16 2 -11 -10 3 -29 6
-43 6 -23 0 -23 1 -7 20 16 18 39 24 31 8z m-308 -483 c-19 -7 -42 -13 -50
-13 -8 0 1 6 20 13 19 7 42 13 50 13 8 0 -1 -6 -20 -13z m-2043 -117 c130
-140 168 -173 221 -188 100 -30 164 -41 242 -42 102 -1 64 -15 -46 -17 -86 -1
-165 13 -219 39 -74 36 -290 260 -250 260 2 0 26 -23 52 -52z"/>
<path d="M3469 4273 c-13 -16 -12 -17 4 -4 16 13 21 21 13 21 -2 0 -10 -8 -17
-17z"/>
<path d="M5678 4233 c7 -3 16 -2 19 1 4 3 -2 6 -13 5 -11 0 -14 -3 -6 -6z"/>
<path d="M5623 4223 c9 -2 23 -2 30 0 6 3 -1 5 -18 5 -16 0 -22 -2 -12 -5z"/>
<path d="M5458 4193 c7 -3 16 -2 19 1 4 3 -2 6 -13 5 -11 0 -14 -3 -6 -6z"/>
<path d="M10505 4031 c-51 -13 -76 -31 -92 -68 -18 -44 -4 -85 35 -103 15 -7
79 -16 142 -21 63 -6 116 -12 119 -14 25 -26 -163 -41 -231 -19 -14 4 -22 -3
-34 -31 -8 -20 -12 -40 -9 -44 9 -16 138 -22 213 -12 116 17 172 54 172 113
-1 54 -42 72 -190 88 -57 6 -108 14 -113 19 -15 15 58 24 144 18 70 -4 80 -3
89 13 17 31 12 57 -12 64 -31 8 -196 6 -233 -3z m204 -7 c61 -12 30 -21 -56
-17 -101 6 -163 -11 -163 -45 0 -34 27 -45 143 -57 137 -15 167 -25 167 -60 0
-27 -28 -50 -81 -65 -91 -26 -263 -23 -253 4 4 11 15 11 47 4 87 -20 218 6
225 44 6 30 -39 46 -153 58 -62 6 -120 18 -132 26 -27 17 -30 56 -7 74 37 31
182 50 263 34z"/>
<path d="M9438 3934 c-2 -2 -22 -6 -43 -8 -104 -13 -118 -16 -121 -19 -11 -10
-4 -68 26 -219 l33 -168 33 0 c36 0 76 30 70 52 -17 53 -16 68 2 68 45 0 178
42 210 66 41 32 64 83 57 125 -13 75 -63 103 -182 105 -45 1 -83 0 -85 -2z
m183 -25 c38 -12 69 -52 69 -89 0 -32 -59 -86 -111 -101 -24 -7 -73 -17 -109
-23 -63 -11 -65 -13 -64 -41 0 -17 2 -41 5 -55 3 -22 0 -25 -27 -28 l-31 -3
-27 143 c-15 79 -30 151 -32 160 -7 23 21 34 105 42 36 3 66 8 68 9 7 8 121
-3 154 -14z"/>
<path d="M9417 3890 c-21 -4 -42 -11 -47 -16 -9 -10 13 -141 27 -155 12 -12
158 16 189 36 51 33 53 88 7 125 -27 21 -98 25 -176 10z m153 -53 c28 -14 37
-41 21 -61 -6 -8 -33 -19 -59 -25 -26 -7 -61 -16 -78 -20 -40 -11 -50 -4 -58
39 -4 19 -10 43 -12 52 -4 13 3 18 33 21 80 8 129 6 153 -6z"/>
<path d="M8445 3782 c-12 -1 -26 -17 -34 -35 -8 -18 -24 -54 -36 -82 -53 -118
-63 -141 -69 -162 -4 -13 -11 -23 -15 -23 -4 0 -59 52 -122 115 -110 111 -115
115 -154 112 -32 -2 -40 -7 -45 -26 -5 -23 70 -424 82 -436 11 -11 80 7 86 23
6 17 -16 157 -33 213 -11 34 8 21 91 -62 99 -99 118 -101 154 -17 41 97 80
178 84 178 2 0 14 -53 26 -117 12 -65 24 -121 26 -124 2 -4 21 -2 43 4 50 14
56 34 37 124 -8 38 -24 118 -36 178 -30 159 -23 147 -85 137z m59 -84 c38
-178 57 -282 52 -294 -3 -8 -16 -14 -29 -14 -22 0 -25 8 -46 120 -13 66 -29
124 -36 130 -10 8 -26 -20 -70 -120 -35 -79 -63 -130 -72 -130 -8 0 -57 42
-109 93 -53 50 -100 94 -105 95 -14 6 -11 -34 15 -158 13 -63 23 -116 22 -117
0 -1 -14 -3 -30 -5 -29 -3 -30 -2 -43 67 -39 199 -61 320 -58 323 1 1 13 5 26
7 20 4 45 -16 146 -117 105 -105 124 -120 137 -109 9 8 16 19 16 26 0 6 6 25
14 41 20 40 72 156 90 199 11 26 21 35 39 35 23 0 26 -6 41 -72z"/>
<path d="M7140 3571 c-35 -10 -35 -31 -6 -181 37 -186 34 -209 -29 -236 -51
-21 -89 -17 -124 11 -36 31 -46 59 -81 234 -16 83 -31 136 -38 135 -7 -1 -27
-2 -46 -2 -47 -3 -49 -23 -16 -190 34 -170 44 -204 78 -244 87 -103 279 -84
357 35 40 61 38 128 -7 345 -23 110 -24 111 -88 93z m85 -152 c29 -152 28
-202 -4 -255 -29 -47 -102 -79 -181 -79 -131 1 -165 44 -210 266 -25 122 -28
154 -18 160 24 16 48 9 53 -13 2 -13 15 -77 29 -144 26 -134 42 -171 83 -204
24 -19 36 -21 88 -17 51 5 64 10 87 36 15 17 31 43 34 57 4 15 -5 86 -20 164
-33 173 -33 170 3 170 l28 0 28 -141z"/>
<path d="M4260 3490 c0 -16 7 -20 32 -20 l31 0 -23 20 c-13 11 -27 20 -32 20
-4 0 -8 -9 -8 -20z"/>
<path d="M4350 3477 c0 -14 33 -67 42 -67 11 0 10 9 -2 23 -6 7 -17 21 -25 32
-8 11 -15 16 -15 12z"/>
<path d="M4404 3445 c11 -8 22 -12 25 -9 6 6 -19 24 -34 24 -5 -1 -1 -7 9 -15z"/>
<path d="M5725 3440 l-100 -5 -3 -31 c-2 -18 18 -137 43 -265 25 -129 48 -246
51 -261 5 -25 10 -28 49 -28 60 0 70 19 51 101 -16 69 -20 65 72 73 126 12
183 64 190 173 5 81 -16 140 -67 186 -61 55 -115 66 -286 57z m225 -33 c111
-48 151 -219 69 -289 -34 -29 -103 -48 -173 -48 -62 0 -68 -12 -51 -95 8 -39
15 -71 15 -72 0 -2 -15 -3 -33 -3 l-34 0 -28 148 c-15 81 -37 197 -50 259
l-22 112 41 3 c93 8 232 0 266 -15z"/>
<path d="M5770 3373 c-19 -3 -39 -8 -43 -12 -8 -8 15 -144 35 -209 l10 -34 75
6 c121 9 166 51 149 139 -17 93 -86 126 -226 110z m143 -64 c51 -23 75 -110
40 -142 -21 -18 -47 -25 -120 -31 l-52 -4 -7 36 c-3 21 -10 53 -15 72 -20 77
-17 80 61 80 38 0 80 -5 93 -11z"/>
<path d="M100 1619 c0 -5 5 -7 10 -4 6 3 10 8 10 11 0 2 -4 4 -10 4 -5 0 -10
-5 -10 -11z"/>
<path d="M157 1140 c-4 -16 0 -20 19 -20 27 0 33 24 8 34 -21 8 -21 8 -27 -14z"/>
<path d="M65 840 c27 -12 35 -12 35 0 0 6 -12 10 -27 9 -25 0 -26 -1 -8 -9z"/>
<path d="M134 825 c16 -14 32 -22 35 -19 7 7 -37 44 -53 44 -6 0 2 -11 18 -25z"/>
<path d="M0 786 c0 -14 5 -26 10 -26 6 0 10 9 10 19 0 11 -4 23 -10 26 -6 4
-10 -5 -10 -19z"/>
<path d="M70 780 c0 -11 -5 -20 -11 -20 -7 0 -22 -11 -35 -25 -17 -19 -23 -36
-22 -65 1 -33 3 -36 15 -24 20 20 39 17 57 -8 13 -18 17 -19 31 -8 13 11 18
11 24 2 4 -7 24 -15 44 -19 l37 -6 -6 47 c-6 40 -4 50 15 67 11 11 21 22 21
25 0 7 -67 34 -85 34 -9 0 -19 -10 -24 -22 -7 -20 -4 -25 23 -35 17 -6 26 -12
19 -12 -32 -2 -60 18 -60 44 0 25 -16 44 -35 45 -5 0 -8 -9 -8 -20z m-30 -76
c0 -8 -4 -12 -10 -9 -5 3 -10 10 -10 16 0 5 5 9 10 9 6 0 10 -7 10 -16z"/>
<path d="M253 744 c-9 -9 -9 -15 -2 -19 7 -5 5 -15 -5 -31 -18 -26 -21 -54 -6
-54 6 0 10 -8 9 -17 0 -11 -3 -13 -6 -5 -2 6 -9 12 -15 12 -6 0 -6 -6 2 -15
19 -23 47 -18 54 10 4 14 13 25 21 25 8 0 15 5 15 10 0 6 -9 10 -19 10 -22 0
-32 19 -25 54 5 29 -6 39 -23 20z"/>
<path d="M230 709 c0 -5 5 -7 10 -4 6 3 10 8 10 11 0 2 -4 4 -10 4 -5 0 -10
-5 -10 -11z"/>
<path d="M25 627 c-12 -41 -13 -76 -2 -80 8 -3 6 -9 -7 -19 -24 -18 -13 -38
20 -38 14 0 35 -5 46 -11 22 -12 49 3 29 15 -8 5 -8 13 0 28 10 18 8 24 -7 35
-17 12 -20 11 -27 -12 -5 -14 -13 -23 -18 -19 -5 3 -7 9 -5 12 2 4 7 26 10 48
6 36 4 42 -14 47 -12 3 -23 0 -25 -6z"/>
<path d="M320 596 c0 -9 4 -16 9 -16 5 0 16 -3 25 -6 11 -4 16 -1 16 10 0 9
-4 16 -9 16 -5 0 -16 3 -25 6 -11 4 -16 1 -16 -10z"/>
<path d="M282 551 c4 -13 18 -16 19 -4 0 4 -5 9 -11 12 -7 2 -11 -2 -8 -8z"/>
<path d="M370 540 c0 -5 5 -10 11 -10 5 0 7 5 4 10 -3 6 -8 10 -11 10 -2 0 -4
-4 -4 -10z"/>
<path d="M268 508 c-12 -34 -9 -106 4 -111 11 -4 13 3 11 27 -4 29 -3 30 10
13 14 -17 16 -16 22 12 8 36 18 38 46 10 13 -13 19 -30 17 -47 -2 -18 2 -26
10 -24 9 1 8 -5 -4 -22 -8 -14 -13 -29 -10 -35 10 -15 -21 -21 -40 -7 -12 9
-14 15 -6 20 21 13 13 24 -20 31 -18 4 -40 8 -49 11 -9 3 -19 -6 -27 -23 l-12
-28 5 28 c4 20 1 27 -11 27 -12 0 -15 -6 -11 -21 3 -13 1 -19 -6 -16 -7 2 -11
13 -9 25 2 13 -4 23 -17 27 -12 4 -18 12 -14 21 5 14 -4 16 -89 18 -13 1 -29
9 -36 19 -23 30 -32 19 -32 -40 0 -54 2 -59 30 -75 23 -13 30 -14 30 -4 0 17
27 29 36 15 7 -12 -24 -38 -46 -39 -13 0 -13 -1 0 -10 8 -5 10 -10 4 -10 -5 0
-20 9 -32 20 l-22 21 0 -101 0 -100 40 0 c22 0 40 -4 40 -9 0 -5 6 -11 13 -14
13 -4 -14 0 -65 10 -28 5 -29 4 -26 -23 2 -22 9 -30 33 -35 17 -4 50 -12 75
-17 33 -8 47 -7 52 1 6 9 8 9 8 0 0 -6 9 -15 21 -18 27 -9 49 21 44 60 -3 17
0 36 4 44 10 16 34 4 27 -14 -3 -8 5 -13 22 -13 37 0 52 15 52 50 0 24 3 29
16 24 24 -9 47 13 33 30 -8 10 -8 14 0 14 6 0 11 9 11 20 0 11 7 20 15 20 12
0 14 -7 11 -27 -2 -16 -5 -38 -5 -50 -1 -13 -7 -23 -16 -23 -9 0 -15 -9 -14
-22 0 -13 3 -18 5 -11 4 8 11 6 25 -8 10 -10 19 -22 19 -25 0 -4 10 -15 22
-25 25 -23 64 -25 72 -4 7 20 26 19 26 -2 0 -15 1 -15 18 0 22 20 63 22 80 5
19 -19 40 7 25 31 -6 10 -8 24 -3 31 14 22 -1 50 -27 50 -13 0 -34 7 -48 16
-13 8 -29 14 -37 13 -7 -1 -24 3 -38 10 -24 11 -24 11 8 8 17 -2 32 0 32 5 0
4 -10 8 -23 8 -13 0 -29 6 -36 13 -10 10 -12 9 -10 -3 2 -8 0 -28 -5 -45 l-8
-30 -19 24 c-10 13 -19 35 -19 50 -1 31 -20 59 -37 54 -7 -3 -13 0 -13 6 0 6
5 11 10 11 6 0 10 8 10 18 0 10 6 24 12 30 10 10 10 14 0 21 -7 4 -10 15 -6
24 4 12 -1 18 -20 23 -18 4 -25 12 -23 27 2 18 -4 22 -38 24 -22 2 -44 8 -49
13 -13 13 -23 12 -28 -2z m-201 -100 c-3 -8 -6 -5 -6 6 -1 11 2 17 5 13 3 -3
4 -12 1 -19z m78 -28 c3 -5 -1 -10 -10 -10 -9 0 -13 5 -10 10 3 6 8 10 10 10
2 0 7 -4 10 -10z m42 -92 c-3 -7 -5 -2 -5 12 0 14 2 19 5 13 2 -7 2 -19 0 -25z
m-24 -39 c6 -44 -2 -58 -26 -50 -17 6 -17 8 -3 20 9 7 16 27 16 44 0 39 7 32
13 -14z m222 31 c3 -5 1 -10 -4 -10 -6 0 -11 5 -11 10 0 6 2 10 4 10 3 0 8 -4
11 -10z m-299 -56 c-3 -8 -1 -14 4 -14 6 0 10 -4 10 -10 0 -12 -42 -9 -52 4
-10 14 14 45 29 39 8 -3 12 -12 9 -19z m24 -48 c0 -2 3 -12 7 -22 5 -15 2 -16
-33 -10 -21 4 -48 10 -59 13 l-20 6 20 8 c21 8 85 12 85 5z m541 -6 c5 0 9 -7
9 -15 0 -18 -42 -5 -48 15 -3 9 1 11 12 7 10 -4 22 -7 27 -7z m-449 -29 c4
-24 0 -30 -18 -34 -19 -3 -23 0 -21 17 2 16 21 43 33 46 1 0 4 -13 6 -29z"/>
<path d="M500 480 c0 -5 5 -10 10 -10 6 0 10 5 10 10 0 6 -4 10 -10 10 -5 0
-10 -4 -10 -10z"/>
<path d="M135 470 c3 -5 10 -10 16 -10 5 0 9 5 9 10 0 6 -7 10 -16 10 -8 0
-12 -4 -9 -10z"/>
<path d="M605 320 c-22 -9 -20 -11 12 -15 14 -1 20 2 16 11 -3 8 -6 14 -7 13
0 0 -10 -4 -21 -9z"/>
<path d="M675 260 c3 -5 8 -10 11 -10 2 0 4 5 4 10 0 6 -5 10 -11 10 -5 0 -7
-4 -4 -10z"/>
<path d="M685 220 c-3 -5 -1 -10 4 -10 6 0 11 5 11 10 0 6 -2 10 -4 10 -3 0
-8 -4 -11 -10z"/>
<path d="M1050 200 c0 -24 15 -27 24 -4 9 22 8 24 -9 24 -8 0 -15 -9 -15 -20z"/>
<path d="M300 85 c-7 -8 -19 -15 -26 -15 -8 0 -14 -5 -14 -11 0 -5 -4 -7 -10
-4 -5 3 -10 2 -10 -4 0 -14 48 -25 98 -22 28 1 28 20 -2 48 -21 20 -25 21 -36
8z"/>
<path d="M735 70 c3 -5 8 -10 11 -10 2 0 4 5 4 10 0 6 -5 10 -11 10 -5 0 -7
-4 -4 -10z"/>
<path d="M552 20 c-11 -19 -10 -20 23 -20 28 0 35 4 35 20 0 14 -7 20 -23 20
-12 0 -28 -9 -35 -20z"/>
</g>
</svg>
